<?xml version="1.0" encoding="utf-8" standalone="no"?>
<!DOCTYPE svg PUBLIC "-//W3C//DTD SVG 1.1//EN"
  "http://www.w3.org/Graphics/SVG/1.1/DTD/svg11.dtd">
<svg xmlns:xlink="http://www.w3.org/1999/xlink" width="526.393125pt" height="474.557812pt" viewBox="0 0 526.393125 474.557812" xmlns="http://www.w3.org/2000/svg" version="1.1">
 <metadata>
  <rdf:RDF xmlns:dc="http://purl.org/dc/elements/1.1/" xmlns:cc="http://creativecommons.org/ns#" xmlns:rdf="http://www.w3.org/1999/02/22-rdf-syntax-ns#">
   <cc:Work>
    <dc:type rdf:resource="http://purl.org/dc/dcmitype/StillImage"/>
    <dc:date>2025-07-08T18:47:46.263077</dc:date>
    <dc:format>image/svg+xml</dc:format>
    <dc:creator>
     <cc:Agent>
      <dc:title>Matplotlib v3.6.3, https://matplotlib.org/</dc:title>
     </cc:Agent>
    </dc:creator>
   </cc:Work>
  </rdf:RDF>
 </metadata>
 <defs>
  <style type="text/css">*{stroke-linejoin: round; stroke-linecap: butt}</style>
 </defs>
 <g id="figure_1">
  <g id="patch_1">
   <path d="M 0 474.557812 
L 526.393125 474.557812 
L 526.393125 0 
L 0 0 
z
" style="fill: #ffffff"/>
  </g>
  <g id="axes_1">
   <g id="patch_2">
    <path d="M 41.436562 467.357812 
L 484.956563 467.357812 
L 484.956563 23.837812 
L 41.436562 23.837812 
z
" style="fill: #f0f0f0"/>
   </g>
   <g id="matplotlib.axis_1"/>
   <g id="matplotlib.axis_2"/>
   <g id="patch_3">
    <path d="M 41.436562 467.357812 
L 41.436562 23.837812 
" style="fill: none; stroke: #1a1a1a; stroke-linejoin: miter; stroke-linecap: square"/>
   </g>
   <g id="patch_4">
    <path d="M 41.436562 467.357812 
L 484.956563 467.357812 
" style="fill: none; stroke: #1a1a1a; stroke-linejoin: miter; stroke-linecap: square"/>
   </g>
   <g id="PathCollection_1">
    <defs>
     <path id="md8e1087e3c" d="M -17.320508 17.320508 
L 17.320508 -17.320508 
M -17.320508 -17.320508 
L 17.320508 17.320508 
" style="stroke: #ff4c4c; stroke-width: 1.5"/>
    </defs>
    <g clip-path="url(#p39af34cb50)">
     <use xlink:href="#md8e1087e3c" x="130.140562" y="112.541812" style="fill: #ff4c4c; stroke: #ff4c4c; stroke-width: 1.5"/>
    </g>
   </g>
   <g id="PathCollection_2">
    <defs>
     <path id="m5a00dbe252" d="M -17.320508 17.320508 
L 17.320508 -17.320508 
M -17.320508 -17.320508 
L 17.320508 17.320508 
" style="stroke: #ff9900; stroke-width: 1.5"/>
    </defs>
    <g clip-path="url(#p39af34cb50)">
     <use xlink:href="#m5a00dbe252" x="307.548563" y="201.245812" style="fill: #ff9900; stroke: #ff9900; stroke-width: 1.5"/>
    </g>
   </g>
   <g id="PathCollection_3">
    <defs>
     <path id="m2eb6dbc32a" d="M -17.320508 17.320508 
L 17.320508 -17.320508 
M -17.320508 -17.320508 
L 17.320508 17.320508 
" style="stroke: #33aa33; stroke-width: 1.5"/>
    </defs>
    <g clip-path="url(#p39af34cb50)">
     <use xlink:href="#m2eb6dbc32a" x="218.844562" y="378.653812" style="fill: #33aa33; stroke: #33aa33; stroke-width: 1.5"/>
    </g>
   </g>
   <g id="PathCollection_4">
    <defs>
     <path id="m52a57c425d" d="M -17.320508 17.320508 
L 17.320508 -17.320508 
M -17.320508 -17.320508 
L 17.320508 17.320508 
" style="stroke: #3399ff; stroke-width: 1.5"/>
    </defs>
    <g clip-path="url(#p39af34cb50)">
     <use xlink:href="#m52a57c425d" x="396.252563" y="289.949812" style="fill: #3399ff; stroke: #3399ff; stroke-width: 1.5"/>
    </g>
   </g>
   <g id="PathCollection_5">
    <defs>
     <path id="m4555460332" d="M -17.320508 17.320508 
L 17.320508 -17.320508 
M -17.320508 -17.320508 
L 17.320508 17.320508 
" style="stroke: #d4af37; stroke-width: 1.5"/>
    </defs>
    <g clip-path="url(#p39af34cb50)">
     <use xlink:href="#m4555460332" x="85.788562" y="289.949812" style="fill: #d4af37; stroke: #d4af37; stroke-width: 1.5"/>
    </g>
   </g>
   <g id="PathCollection_6">
    <defs>
     <path id="m0a19f9db5d" d="M -17.320508 17.320508 
L 17.320508 -17.320508 
M -17.320508 -17.320508 
L 17.320508 17.320508 
" style="stroke: #9966cc; stroke-width: 1.5"/>
    </defs>
    <g clip-path="url(#p39af34cb50)">
     <use xlink:href="#m0a19f9db5d" x="263.196562" y="245.597812" style="fill: #9966cc; stroke: #9966cc; stroke-width: 1.5"/>
    </g>
   </g>
   <g id="PathCollection_7">
    <defs>
     <path id="m25f8ef0d72" d="M -17.320508 17.320508 
L 17.320508 -17.320508 
M -17.320508 -17.320508 
L 17.320508 17.320508 
" style="stroke: #00cc99; stroke-width: 1.5"/>
    </defs>
    <g clip-path="url(#p39af34cb50)">
     <use xlink:href="#m25f8ef0d72" x="174.492562" y="334.301812" style="fill: #00cc99; stroke: #00cc99; stroke-width: 1.5"/>
    </g>
   </g>
   <g id="text_1">
    <!-- Deployment Region Zones - Atmospheric Filtration Drone Swarm -->
    <g style="fill: #333333" transform="translate(7.2 17.837812) scale(0.14 -0.14)">
     <defs>
      <path id="DejaVuSans-Bold-44" d="M 1791 3756 
L 1791 909 
L 2222 909 
Q 2959 909 3348 1275 
Q 3738 1641 3738 2338 
Q 3738 3031 3350 3393 
Q 2963 3756 2222 3756 
L 1791 3756 
z
M 588 4666 
L 1856 4666 
Q 2919 4666 3439 4514 
Q 3959 4363 4331 4000 
Q 4659 3684 4818 3271 
Q 4978 2859 4978 2338 
Q 4978 1809 4818 1395 
Q 4659 981 4331 666 
Q 3956 303 3431 151 
Q 2906 0 1856 0 
L 588 0 
L 588 4666 
z
" transform="scale(0.015625)"/>
      <path id="DejaVuSans-Bold-65" d="M 4031 1759 
L 4031 1441 
L 1416 1441 
Q 1456 1047 1700 850 
Q 1944 653 2381 653 
Q 2734 653 3104 758 
Q 3475 863 3866 1075 
L 3866 213 
Q 3469 63 3072 -14 
Q 2675 -91 2278 -91 
Q 1328 -91 801 392 
Q 275 875 275 1747 
Q 275 2603 792 3093 
Q 1309 3584 2216 3584 
Q 3041 3584 3536 3087 
Q 4031 2591 4031 1759 
z
M 2881 2131 
Q 2881 2450 2695 2645 
Q 2509 2841 2209 2841 
Q 1884 2841 1681 2658 
Q 1478 2475 1428 2131 
L 2881 2131 
z
" transform="scale(0.015625)"/>
      <path id="DejaVuSans-Bold-70" d="M 1656 506 
L 1656 -1331 
L 538 -1331 
L 538 3500 
L 1656 3500 
L 1656 2988 
Q 1888 3294 2169 3439 
Q 2450 3584 2816 3584 
Q 3463 3584 3878 3070 
Q 4294 2556 4294 1747 
Q 4294 938 3878 423 
Q 3463 -91 2816 -91 
Q 2450 -91 2169 54 
Q 1888 200 1656 506 
z
M 2400 2772 
Q 2041 2772 1848 2508 
Q 1656 2244 1656 1747 
Q 1656 1250 1848 986 
Q 2041 722 2400 722 
Q 2759 722 2948 984 
Q 3138 1247 3138 1747 
Q 3138 2247 2948 2509 
Q 2759 2772 2400 2772 
z
" transform="scale(0.015625)"/>
      <path id="DejaVuSans-Bold-6c" d="M 538 4863 
L 1656 4863 
L 1656 0 
L 538 0 
L 538 4863 
z
" transform="scale(0.015625)"/>
      <path id="DejaVuSans-Bold-6f" d="M 2203 2784 
Q 1831 2784 1636 2517 
Q 1441 2250 1441 1747 
Q 1441 1244 1636 976 
Q 1831 709 2203 709 
Q 2569 709 2762 976 
Q 2956 1244 2956 1747 
Q 2956 2250 2762 2517 
Q 2569 2784 2203 2784 
z
M 2203 3584 
Q 3106 3584 3614 3096 
Q 4122 2609 4122 1747 
Q 4122 884 3614 396 
Q 3106 -91 2203 -91 
Q 1297 -91 786 396 
Q 275 884 275 1747 
Q 275 2609 786 3096 
Q 1297 3584 2203 3584 
z
" transform="scale(0.015625)"/>
      <path id="DejaVuSans-Bold-79" d="M 78 3500 
L 1197 3500 
L 2138 1125 
L 2938 3500 
L 4056 3500 
L 2584 -331 
Q 2363 -916 2067 -1148 
Q 1772 -1381 1288 -1381 
L 641 -1381 
L 641 -647 
L 991 -647 
Q 1275 -647 1404 -556 
Q 1534 -466 1606 -231 
L 1638 -134 
L 78 3500 
z
" transform="scale(0.015625)"/>
      <path id="DejaVuSans-Bold-6d" d="M 3781 2919 
Q 3994 3244 4286 3414 
Q 4578 3584 4928 3584 
Q 5531 3584 5847 3212 
Q 6163 2841 6163 2131 
L 6163 0 
L 5038 0 
L 5038 1825 
Q 5041 1866 5042 1909 
Q 5044 1953 5044 2034 
Q 5044 2406 4934 2573 
Q 4825 2741 4581 2741 
Q 4263 2741 4089 2478 
Q 3916 2216 3909 1719 
L 3909 0 
L 2784 0 
L 2784 1825 
Q 2784 2406 2684 2573 
Q 2584 2741 2328 2741 
Q 2006 2741 1831 2477 
Q 1656 2213 1656 1722 
L 1656 0 
L 531 0 
L 531 3500 
L 1656 3500 
L 1656 2988 
Q 1863 3284 2130 3434 
Q 2397 3584 2719 3584 
Q 3081 3584 3359 3409 
Q 3638 3234 3781 2919 
z
" transform="scale(0.015625)"/>
      <path id="DejaVuSans-Bold-6e" d="M 4056 2131 
L 4056 0 
L 2931 0 
L 2931 347 
L 2931 1631 
Q 2931 2084 2911 2256 
Q 2891 2428 2841 2509 
Q 2775 2619 2662 2680 
Q 2550 2741 2406 2741 
Q 2056 2741 1856 2470 
Q 1656 2200 1656 1722 
L 1656 0 
L 538 0 
L 538 3500 
L 1656 3500 
L 1656 2988 
Q 1909 3294 2193 3439 
Q 2478 3584 2822 3584 
Q 3428 3584 3742 3212 
Q 4056 2841 4056 2131 
z
" transform="scale(0.015625)"/>
      <path id="DejaVuSans-Bold-74" d="M 1759 4494 
L 1759 3500 
L 2913 3500 
L 2913 2700 
L 1759 2700 
L 1759 1216 
Q 1759 972 1856 886 
Q 1953 800 2241 800 
L 2816 800 
L 2816 0 
L 1856 0 
Q 1194 0 917 276 
Q 641 553 641 1216 
L 641 2700 
L 84 2700 
L 84 3500 
L 641 3500 
L 641 4494 
L 1759 4494 
z
" transform="scale(0.015625)"/>
      <path id="DejaVuSans-Bold-20" transform="scale(0.015625)"/>
      <path id="DejaVuSans-Bold-52" d="M 2297 2597 
Q 2675 2597 2839 2737 
Q 3003 2878 3003 3200 
Q 3003 3519 2839 3656 
Q 2675 3794 2297 3794 
L 1791 3794 
L 1791 2597 
L 2297 2597 
z
M 1791 1766 
L 1791 0 
L 588 0 
L 588 4666 
L 2425 4666 
Q 3347 4666 3776 4356 
Q 4206 4047 4206 3378 
Q 4206 2916 3982 2619 
Q 3759 2322 3309 2181 
Q 3556 2125 3751 1926 
Q 3947 1728 4147 1325 
L 4800 0 
L 3519 0 
L 2950 1159 
Q 2778 1509 2601 1637 
Q 2425 1766 2131 1766 
L 1791 1766 
z
" transform="scale(0.015625)"/>
      <path id="DejaVuSans-Bold-67" d="M 2919 594 
Q 2688 288 2409 144 
Q 2131 0 1766 0 
Q 1125 0 706 504 
Q 288 1009 288 1791 
Q 288 2575 706 3076 
Q 1125 3578 1766 3578 
Q 2131 3578 2409 3434 
Q 2688 3291 2919 2981 
L 2919 3500 
L 4044 3500 
L 4044 353 
Q 4044 -491 3511 -936 
Q 2978 -1381 1966 -1381 
Q 1638 -1381 1331 -1331 
Q 1025 -1281 716 -1178 
L 716 -306 
Q 1009 -475 1290 -558 
Q 1572 -641 1856 -641 
Q 2406 -641 2662 -400 
Q 2919 -159 2919 353 
L 2919 594 
z
M 2181 2772 
Q 1834 2772 1640 2515 
Q 1447 2259 1447 1791 
Q 1447 1309 1634 1061 
Q 1822 813 2181 813 
Q 2531 813 2725 1069 
Q 2919 1325 2919 1791 
Q 2919 2259 2725 2515 
Q 2531 2772 2181 2772 
z
" transform="scale(0.015625)"/>
      <path id="DejaVuSans-Bold-69" d="M 538 3500 
L 1656 3500 
L 1656 0 
L 538 0 
L 538 3500 
z
M 538 4863 
L 1656 4863 
L 1656 3950 
L 538 3950 
L 538 4863 
z
" transform="scale(0.015625)"/>
      <path id="DejaVuSans-Bold-5a" d="M 359 4666 
L 4281 4666 
L 4281 3938 
L 1778 909 
L 4353 909 
L 4353 0 
L 288 0 
L 288 728 
L 2791 3756 
L 359 3756 
L 359 4666 
z
" transform="scale(0.015625)"/>
      <path id="DejaVuSans-Bold-73" d="M 3272 3391 
L 3272 2541 
Q 2913 2691 2578 2766 
Q 2244 2841 1947 2841 
Q 1628 2841 1473 2761 
Q 1319 2681 1319 2516 
Q 1319 2381 1436 2309 
Q 1553 2238 1856 2203 
L 2053 2175 
Q 2913 2066 3209 1816 
Q 3506 1566 3506 1031 
Q 3506 472 3093 190 
Q 2681 -91 1863 -91 
Q 1516 -91 1145 -36 
Q 775 19 384 128 
L 384 978 
Q 719 816 1070 734 
Q 1422 653 1784 653 
Q 2113 653 2278 743 
Q 2444 834 2444 1013 
Q 2444 1163 2330 1236 
Q 2216 1309 1875 1350 
L 1678 1375 
Q 931 1469 631 1722 
Q 331 1975 331 2491 
Q 331 3047 712 3315 
Q 1094 3584 1881 3584 
Q 2191 3584 2531 3537 
Q 2872 3491 3272 3391 
z
" transform="scale(0.015625)"/>
      <path id="DejaVuSans-Bold-2d" d="M 347 2297 
L 2309 2297 
L 2309 1388 
L 347 1388 
L 347 2297 
z
" transform="scale(0.015625)"/>
      <path id="DejaVuSans-Bold-41" d="M 3419 850 
L 1538 850 
L 1241 0 
L 31 0 
L 1759 4666 
L 3194 4666 
L 4922 0 
L 3713 0 
L 3419 850 
z
M 1838 1716 
L 3116 1716 
L 2478 3572 
L 1838 1716 
z
" transform="scale(0.015625)"/>
      <path id="DejaVuSans-Bold-68" d="M 4056 2131 
L 4056 0 
L 2931 0 
L 2931 347 
L 2931 1625 
Q 2931 2084 2911 2256 
Q 2891 2428 2841 2509 
Q 2775 2619 2662 2680 
Q 2550 2741 2406 2741 
Q 2056 2741 1856 2470 
Q 1656 2200 1656 1722 
L 1656 0 
L 538 0 
L 538 4863 
L 1656 4863 
L 1656 2988 
Q 1909 3294 2193 3439 
Q 2478 3584 2822 3584 
Q 3428 3584 3742 3212 
Q 4056 2841 4056 2131 
z
" transform="scale(0.015625)"/>
      <path id="DejaVuSans-Bold-72" d="M 3138 2547 
Q 2991 2616 2845 2648 
Q 2700 2681 2553 2681 
Q 2122 2681 1889 2404 
Q 1656 2128 1656 1613 
L 1656 0 
L 538 0 
L 538 3500 
L 1656 3500 
L 1656 2925 
Q 1872 3269 2151 3426 
Q 2431 3584 2822 3584 
Q 2878 3584 2943 3579 
Q 3009 3575 3134 3559 
L 3138 2547 
z
" transform="scale(0.015625)"/>
      <path id="DejaVuSans-Bold-63" d="M 3366 3391 
L 3366 2478 
Q 3138 2634 2908 2709 
Q 2678 2784 2431 2784 
Q 1963 2784 1702 2511 
Q 1441 2238 1441 1747 
Q 1441 1256 1702 982 
Q 1963 709 2431 709 
Q 2694 709 2930 787 
Q 3166 866 3366 1019 
L 3366 103 
Q 3103 6 2833 -42 
Q 2563 -91 2291 -91 
Q 1344 -91 809 395 
Q 275 881 275 1747 
Q 275 2613 809 3098 
Q 1344 3584 2291 3584 
Q 2566 3584 2833 3536 
Q 3100 3488 3366 3391 
z
" transform="scale(0.015625)"/>
      <path id="DejaVuSans-Bold-46" d="M 588 4666 
L 3834 4666 
L 3834 3756 
L 1791 3756 
L 1791 2888 
L 3713 2888 
L 3713 1978 
L 1791 1978 
L 1791 0 
L 588 0 
L 588 4666 
z
" transform="scale(0.015625)"/>
      <path id="DejaVuSans-Bold-61" d="M 2106 1575 
Q 1756 1575 1579 1456 
Q 1403 1338 1403 1106 
Q 1403 894 1545 773 
Q 1688 653 1941 653 
Q 2256 653 2472 879 
Q 2688 1106 2688 1447 
L 2688 1575 
L 2106 1575 
z
M 3816 1997 
L 3816 0 
L 2688 0 
L 2688 519 
Q 2463 200 2181 54 
Q 1900 -91 1497 -91 
Q 953 -91 614 226 
Q 275 544 275 1050 
Q 275 1666 698 1953 
Q 1122 2241 2028 2241 
L 2688 2241 
L 2688 2328 
Q 2688 2594 2478 2717 
Q 2269 2841 1825 2841 
Q 1466 2841 1156 2769 
Q 847 2697 581 2553 
L 581 3406 
Q 941 3494 1303 3539 
Q 1666 3584 2028 3584 
Q 2975 3584 3395 3211 
Q 3816 2838 3816 1997 
z
" transform="scale(0.015625)"/>
      <path id="DejaVuSans-Bold-53" d="M 3834 4519 
L 3834 3531 
Q 3450 3703 3084 3790 
Q 2719 3878 2394 3878 
Q 1963 3878 1756 3759 
Q 1550 3641 1550 3391 
Q 1550 3203 1689 3098 
Q 1828 2994 2194 2919 
L 2706 2816 
Q 3484 2659 3812 2340 
Q 4141 2022 4141 1434 
Q 4141 663 3683 286 
Q 3225 -91 2284 -91 
Q 1841 -91 1394 -6 
Q 947 78 500 244 
L 500 1259 
Q 947 1022 1364 901 
Q 1781 781 2169 781 
Q 2563 781 2772 912 
Q 2981 1044 2981 1288 
Q 2981 1506 2839 1625 
Q 2697 1744 2272 1838 
L 1806 1941 
Q 1106 2091 782 2419 
Q 459 2747 459 3303 
Q 459 4000 909 4375 
Q 1359 4750 2203 4750 
Q 2588 4750 2994 4692 
Q 3400 4634 3834 4519 
z
" transform="scale(0.015625)"/>
      <path id="DejaVuSans-Bold-77" d="M 225 3500 
L 1313 3500 
L 1900 1088 
L 2491 3500 
L 3425 3500 
L 4013 1113 
L 4603 3500 
L 5691 3500 
L 4769 0 
L 3547 0 
L 2956 2406 
L 2369 0 
L 1147 0 
L 225 3500 
z
" transform="scale(0.015625)"/>
     </defs>
     <use xlink:href="#DejaVuSans-Bold-44"/>
     <use xlink:href="#DejaVuSans-Bold-65" x="83.007812"/>
     <use xlink:href="#DejaVuSans-Bold-70" x="150.830078"/>
     <use xlink:href="#DejaVuSans-Bold-6c" x="222.412109"/>
     <use xlink:href="#DejaVuSans-Bold-6f" x="256.689453"/>
     <use xlink:href="#DejaVuSans-Bold-79" x="325.390625"/>
     <use xlink:href="#DejaVuSans-Bold-6d" x="390.576172"/>
     <use xlink:href="#DejaVuSans-Bold-65" x="494.775391"/>
     <use xlink:href="#DejaVuSans-Bold-6e" x="562.597656"/>
     <use xlink:href="#DejaVuSans-Bold-74" x="633.789062"/>
     <use xlink:href="#DejaVuSans-Bold-20" x="681.591797"/>
     <use xlink:href="#DejaVuSans-Bold-52" x="716.40625"/>
     <use xlink:href="#DejaVuSans-Bold-65" x="793.408203"/>
     <use xlink:href="#DejaVuSans-Bold-67" x="861.230469"/>
     <use xlink:href="#DejaVuSans-Bold-69" x="932.8125"/>
     <use xlink:href="#DejaVuSans-Bold-6f" x="967.089844"/>
     <use xlink:href="#DejaVuSans-Bold-6e" x="1035.791016"/>
     <use xlink:href="#DejaVuSans-Bold-20" x="1106.982422"/>
     <use xlink:href="#DejaVuSans-Bold-5a" x="1141.796875"/>
     <use xlink:href="#DejaVuSans-Bold-6f" x="1214.306641"/>
     <use xlink:href="#DejaVuSans-Bold-6e" x="1283.007812"/>
     <use xlink:href="#DejaVuSans-Bold-65" x="1354.199219"/>
     <use xlink:href="#DejaVuSans-Bold-73" x="1422.021484"/>
     <use xlink:href="#DejaVuSans-Bold-20" x="1481.542969"/>
     <use xlink:href="#DejaVuSans-Bold-2d" x="1516.357422"/>
     <use xlink:href="#DejaVuSans-Bold-20" x="1557.861328"/>
     <use xlink:href="#DejaVuSans-Bold-41" x="1592.675781"/>
     <use xlink:href="#DejaVuSans-Bold-74" x="1670.068359"/>
     <use xlink:href="#DejaVuSans-Bold-6d" x="1717.871094"/>
     <use xlink:href="#DejaVuSans-Bold-6f" x="1822.070312"/>
     <use xlink:href="#DejaVuSans-Bold-73" x="1890.771484"/>
     <use xlink:href="#DejaVuSans-Bold-70" x="1950.292969"/>
     <use xlink:href="#DejaVuSans-Bold-68" x="2021.875"/>
     <use xlink:href="#DejaVuSans-Bold-65" x="2093.066406"/>
     <use xlink:href="#DejaVuSans-Bold-72" x="2160.888672"/>
     <use xlink:href="#DejaVuSans-Bold-69" x="2210.205078"/>
     <use xlink:href="#DejaVuSans-Bold-63" x="2244.482422"/>
     <use xlink:href="#DejaVuSans-Bold-20" x="2303.759766"/>
     <use xlink:href="#DejaVuSans-Bold-46" x="2338.574219"/>
     <use xlink:href="#DejaVuSans-Bold-69" x="2406.884766"/>
     <use xlink:href="#DejaVuSans-Bold-6c" x="2441.162109"/>
     <use xlink:href="#DejaVuSans-Bold-74" x="2475.439453"/>
     <use xlink:href="#DejaVuSans-Bold-72" x="2523.242188"/>
     <use xlink:href="#DejaVuSans-Bold-61" x="2572.558594"/>
     <use xlink:href="#DejaVuSans-Bold-74" x="2640.039062"/>
     <use xlink:href="#DejaVuSans-Bold-69" x="2687.841797"/>
     <use xlink:href="#DejaVuSans-Bold-6f" x="2722.119141"/>
     <use xlink:href="#DejaVuSans-Bold-6e" x="2790.820312"/>
     <use xlink:href="#DejaVuSans-Bold-20" x="2862.011719"/>
     <use xlink:href="#DejaVuSans-Bold-44" x="2896.826172"/>
     <use xlink:href="#DejaVuSans-Bold-72" x="2979.833984"/>
     <use xlink:href="#DejaVuSans-Bold-6f" x="3029.150391"/>
     <use xlink:href="#DejaVuSans-Bold-6e" x="3097.851562"/>
     <use xlink:href="#DejaVuSans-Bold-65" x="3169.042969"/>
     <use xlink:href="#DejaVuSans-Bold-20" x="3236.865234"/>
     <use xlink:href="#DejaVuSans-Bold-53" x="3271.679688"/>
     <use xlink:href="#DejaVuSans-Bold-77" x="3343.701172"/>
     <use xlink:href="#DejaVuSans-Bold-61" x="3436.083984"/>
     <use xlink:href="#DejaVuSans-Bold-72" x="3503.564453"/>
     <use xlink:href="#DejaVuSans-Bold-6d" x="3552.880859"/>
    </g>
   </g>
   <g id="text_2">
    <!-- Urban (Smog Belt) -->
    <g style="fill: #ffffff" transform="translate(77.919469 115.262125) scale(0.1 -0.1)">
     <defs>
      <path id="DejaVuSans-Bold-55" d="M 588 4666 
L 1791 4666 
L 1791 1869 
Q 1791 1291 1980 1042 
Q 2169 794 2597 794 
Q 3028 794 3217 1042 
Q 3406 1291 3406 1869 
L 3406 4666 
L 4609 4666 
L 4609 1869 
Q 4609 878 4112 393 
Q 3616 -91 2597 -91 
Q 1581 -91 1084 393 
Q 588 878 588 1869 
L 588 4666 
z
" transform="scale(0.015625)"/>
      <path id="DejaVuSans-Bold-62" d="M 2400 722 
Q 2759 722 2948 984 
Q 3138 1247 3138 1747 
Q 3138 2247 2948 2509 
Q 2759 2772 2400 2772 
Q 2041 2772 1848 2508 
Q 1656 2244 1656 1747 
Q 1656 1250 1848 986 
Q 2041 722 2400 722 
z
M 1656 2988 
Q 1888 3294 2169 3439 
Q 2450 3584 2816 3584 
Q 3463 3584 3878 3070 
Q 4294 2556 4294 1747 
Q 4294 938 3878 423 
Q 3463 -91 2816 -91 
Q 2450 -91 2169 54 
Q 1888 200 1656 506 
L 1656 0 
L 538 0 
L 538 4863 
L 1656 4863 
L 1656 2988 
z
" transform="scale(0.015625)"/>
      <path id="DejaVuSans-Bold-28" d="M 2413 -844 
L 1484 -844 
Q 1006 -72 778 623 
Q 550 1319 550 2003 
Q 550 2688 779 3389 
Q 1009 4091 1484 4856 
L 2413 4856 
Q 2013 4116 1813 3408 
Q 1613 2700 1613 2009 
Q 1613 1319 1811 609 
Q 2009 -100 2413 -844 
z
" transform="scale(0.015625)"/>
      <path id="DejaVuSans-Bold-42" d="M 2456 2859 
Q 2741 2859 2887 2984 
Q 3034 3109 3034 3353 
Q 3034 3594 2887 3720 
Q 2741 3847 2456 3847 
L 1791 3847 
L 1791 2859 
L 2456 2859 
z
M 2497 819 
Q 2859 819 3042 972 
Q 3225 1125 3225 1434 
Q 3225 1738 3044 1889 
Q 2863 2041 2497 2041 
L 1791 2041 
L 1791 819 
L 2497 819 
z
M 3616 2497 
Q 4003 2384 4215 2081 
Q 4428 1778 4428 1338 
Q 4428 663 3972 331 
Q 3516 0 2584 0 
L 588 0 
L 588 4666 
L 2394 4666 
Q 3366 4666 3802 4372 
Q 4238 4078 4238 3431 
Q 4238 3091 4078 2852 
Q 3919 2613 3616 2497 
z
" transform="scale(0.015625)"/>
      <path id="DejaVuSans-Bold-29" d="M 513 -844 
Q 913 -100 1113 609 
Q 1313 1319 1313 2009 
Q 1313 2700 1113 3408 
Q 913 4116 513 4856 
L 1441 4856 
Q 1916 4091 2145 3389 
Q 2375 2688 2375 2003 
Q 2375 1319 2147 623 
Q 1919 -72 1441 -844 
L 513 -844 
z
" transform="scale(0.015625)"/>
     </defs>
     <use xlink:href="#DejaVuSans-Bold-55"/>
     <use xlink:href="#DejaVuSans-Bold-72" x="81.201172"/>
     <use xlink:href="#DejaVuSans-Bold-62" x="130.517578"/>
     <use xlink:href="#DejaVuSans-Bold-61" x="202.099609"/>
     <use xlink:href="#DejaVuSans-Bold-6e" x="269.580078"/>
     <use xlink:href="#DejaVuSans-Bold-20" x="340.771484"/>
     <use xlink:href="#DejaVuSans-Bold-28" x="375.585938"/>
     <use xlink:href="#DejaVuSans-Bold-53" x="421.289062"/>
     <use xlink:href="#DejaVuSans-Bold-6d" x="493.310547"/>
     <use xlink:href="#DejaVuSans-Bold-6f" x="597.509766"/>
     <use xlink:href="#DejaVuSans-Bold-67" x="666.210938"/>
     <use xlink:href="#DejaVuSans-Bold-20" x="737.792969"/>
     <use xlink:href="#DejaVuSans-Bold-42" x="772.607422"/>
     <use xlink:href="#DejaVuSans-Bold-65" x="848.828125"/>
     <use xlink:href="#DejaVuSans-Bold-6c" x="916.650391"/>
     <use xlink:href="#DejaVuSans-Bold-74" x="950.927734"/>
     <use xlink:href="#DejaVuSans-Bold-29" x="998.730469"/>
    </g>
   </g>
   <g id="text_3">
    <!-- Industrial (High NOx) -->
    <g style="fill: #ffffff" transform="translate(247.608719 203.966125) scale(0.1 -0.1)">
     <defs>
      <path id="DejaVuSans-Bold-49" d="M 588 4666 
L 1791 4666 
L 1791 0 
L 588 0 
L 588 4666 
z
" transform="scale(0.015625)"/>
      <path id="DejaVuSans-Bold-64" d="M 2919 2988 
L 2919 4863 
L 4044 4863 
L 4044 0 
L 2919 0 
L 2919 506 
Q 2688 197 2409 53 
Q 2131 -91 1766 -91 
Q 1119 -91 703 423 
Q 288 938 288 1747 
Q 288 2556 703 3070 
Q 1119 3584 1766 3584 
Q 2128 3584 2408 3439 
Q 2688 3294 2919 2988 
z
M 2181 722 
Q 2541 722 2730 984 
Q 2919 1247 2919 1747 
Q 2919 2247 2730 2509 
Q 2541 2772 2181 2772 
Q 1825 2772 1636 2509 
Q 1447 2247 1447 1747 
Q 1447 1247 1636 984 
Q 1825 722 2181 722 
z
" transform="scale(0.015625)"/>
      <path id="DejaVuSans-Bold-75" d="M 500 1363 
L 500 3500 
L 1625 3500 
L 1625 3150 
Q 1625 2866 1622 2436 
Q 1619 2006 1619 1863 
Q 1619 1441 1641 1255 
Q 1663 1069 1716 984 
Q 1784 875 1895 815 
Q 2006 756 2150 756 
Q 2500 756 2700 1025 
Q 2900 1294 2900 1772 
L 2900 3500 
L 4019 3500 
L 4019 0 
L 2900 0 
L 2900 506 
Q 2647 200 2364 54 
Q 2081 -91 1741 -91 
Q 1134 -91 817 281 
Q 500 653 500 1363 
z
" transform="scale(0.015625)"/>
      <path id="DejaVuSans-Bold-48" d="M 588 4666 
L 1791 4666 
L 1791 2888 
L 3566 2888 
L 3566 4666 
L 4769 4666 
L 4769 0 
L 3566 0 
L 3566 1978 
L 1791 1978 
L 1791 0 
L 588 0 
L 588 4666 
z
" transform="scale(0.015625)"/>
      <path id="DejaVuSans-Bold-4e" d="M 588 4666 
L 1931 4666 
L 3628 1466 
L 3628 4666 
L 4769 4666 
L 4769 0 
L 3425 0 
L 1728 3200 
L 1728 0 
L 588 0 
L 588 4666 
z
" transform="scale(0.015625)"/>
      <path id="DejaVuSans-Bold-4f" d="M 2719 3878 
Q 2169 3878 1866 3472 
Q 1563 3066 1563 2328 
Q 1563 1594 1866 1187 
Q 2169 781 2719 781 
Q 3272 781 3575 1187 
Q 3878 1594 3878 2328 
Q 3878 3066 3575 3472 
Q 3272 3878 2719 3878 
z
M 2719 4750 
Q 3844 4750 4481 4106 
Q 5119 3463 5119 2328 
Q 5119 1197 4481 553 
Q 3844 -91 2719 -91 
Q 1597 -91 958 553 
Q 319 1197 319 2328 
Q 319 3463 958 4106 
Q 1597 4750 2719 4750 
z
" transform="scale(0.015625)"/>
      <path id="DejaVuSans-Bold-78" d="M 1422 1791 
L 159 3500 
L 1344 3500 
L 2059 2463 
L 2784 3500 
L 3969 3500 
L 2706 1797 
L 4031 0 
L 2847 0 
L 2059 1106 
L 1281 0 
L 97 0 
L 1422 1791 
z
" transform="scale(0.015625)"/>
     </defs>
     <use xlink:href="#DejaVuSans-Bold-49"/>
     <use xlink:href="#DejaVuSans-Bold-6e" x="37.207031"/>
     <use xlink:href="#DejaVuSans-Bold-64" x="108.398438"/>
     <use xlink:href="#DejaVuSans-Bold-75" x="179.980469"/>
     <use xlink:href="#DejaVuSans-Bold-73" x="251.171875"/>
     <use xlink:href="#DejaVuSans-Bold-74" x="310.693359"/>
     <use xlink:href="#DejaVuSans-Bold-72" x="358.496094"/>
     <use xlink:href="#DejaVuSans-Bold-69" x="407.8125"/>
     <use xlink:href="#DejaVuSans-Bold-61" x="442.089844"/>
     <use xlink:href="#DejaVuSans-Bold-6c" x="509.570312"/>
     <use xlink:href="#DejaVuSans-Bold-20" x="543.847656"/>
     <use xlink:href="#DejaVuSans-Bold-28" x="578.662109"/>
     <use xlink:href="#DejaVuSans-Bold-48" x="624.365234"/>
     <use xlink:href="#DejaVuSans-Bold-69" x="708.056641"/>
     <use xlink:href="#DejaVuSans-Bold-67" x="742.333984"/>
     <use xlink:href="#DejaVuSans-Bold-68" x="813.916016"/>
     <use xlink:href="#DejaVuSans-Bold-20" x="885.107422"/>
     <use xlink:href="#DejaVuSans-Bold-4e" x="919.921875"/>
     <use xlink:href="#DejaVuSans-Bold-4f" x="1003.613281"/>
     <use xlink:href="#DejaVuSans-Bold-78" x="1088.623047"/>
     <use xlink:href="#DejaVuSans-Bold-29" x="1153.125"/>
    </g>
   </g>
   <g id="text_4">
    <!-- Forest Edge -->
    <g style="fill: #ffffff" transform="translate(185.265656 381.374125) scale(0.1 -0.1)">
     <defs>
      <path id="DejaVuSans-Bold-45" d="M 588 4666 
L 3834 4666 
L 3834 3756 
L 1791 3756 
L 1791 2888 
L 3713 2888 
L 3713 1978 
L 1791 1978 
L 1791 909 
L 3903 909 
L 3903 0 
L 588 0 
L 588 4666 
z
" transform="scale(0.015625)"/>
     </defs>
     <use xlink:href="#DejaVuSans-Bold-46"/>
     <use xlink:href="#DejaVuSans-Bold-6f" x="64.310547"/>
     <use xlink:href="#DejaVuSans-Bold-72" x="133.011719"/>
     <use xlink:href="#DejaVuSans-Bold-65" x="182.328125"/>
     <use xlink:href="#DejaVuSans-Bold-73" x="250.150391"/>
     <use xlink:href="#DejaVuSans-Bold-74" x="309.671875"/>
     <use xlink:href="#DejaVuSans-Bold-20" x="357.474609"/>
     <use xlink:href="#DejaVuSans-Bold-45" x="392.289062"/>
     <use xlink:href="#DejaVuSans-Bold-64" x="460.599609"/>
     <use xlink:href="#DejaVuSans-Bold-67" x="532.181641"/>
     <use xlink:href="#DejaVuSans-Bold-65" x="603.763672"/>
    </g>
   </g>
   <g id="text_5">
    <!-- Coastal City -->
    <g style="fill: #ffffff" transform="translate(362.546312 292.670125) scale(0.1 -0.1)">
     <defs>
      <path id="DejaVuSans-Bold-43" d="M 4288 256 
Q 3956 84 3597 -3 
Q 3238 -91 2847 -91 
Q 1681 -91 1000 561 
Q 319 1213 319 2328 
Q 319 3447 1000 4098 
Q 1681 4750 2847 4750 
Q 3238 4750 3597 4662 
Q 3956 4575 4288 4403 
L 4288 3438 
Q 3953 3666 3628 3772 
Q 3303 3878 2944 3878 
Q 2300 3878 1931 3465 
Q 1563 3053 1563 2328 
Q 1563 1606 1931 1193 
Q 2300 781 2944 781 
Q 3303 781 3628 887 
Q 3953 994 4288 1222 
L 4288 256 
z
" transform="scale(0.015625)"/>
     </defs>
     <use xlink:href="#DejaVuSans-Bold-43"/>
     <use xlink:href="#DejaVuSans-Bold-6f" x="73.388672"/>
     <use xlink:href="#DejaVuSans-Bold-61" x="142.089844"/>
     <use xlink:href="#DejaVuSans-Bold-73" x="209.570312"/>
     <use xlink:href="#DejaVuSans-Bold-74" x="269.091797"/>
     <use xlink:href="#DejaVuSans-Bold-61" x="316.894531"/>
     <use xlink:href="#DejaVuSans-Bold-6c" x="384.375"/>
     <use xlink:href="#DejaVuSans-Bold-20" x="418.652344"/>
     <use xlink:href="#DejaVuSans-Bold-43" x="453.466797"/>
     <use xlink:href="#DejaVuSans-Bold-69" x="526.855469"/>
     <use xlink:href="#DejaVuSans-Bold-74" x="561.132812"/>
     <use xlink:href="#DejaVuSans-Bold-79" x="608.935547"/>
    </g>
   </g>
   <g id="text_6">
    <!-- Desert Urban -->
    <g style="fill: #ffffff" transform="translate(48.244812 292.709187) scale(0.1 -0.1)">
     <use xlink:href="#DejaVuSans-Bold-44"/>
     <use xlink:href="#DejaVuSans-Bold-65" x="83.007812"/>
     <use xlink:href="#DejaVuSans-Bold-73" x="150.830078"/>
     <use xlink:href="#DejaVuSans-Bold-65" x="210.351562"/>
     <use xlink:href="#DejaVuSans-Bold-72" x="278.173828"/>
     <use xlink:href="#DejaVuSans-Bold-74" x="327.490234"/>
     <use xlink:href="#DejaVuSans-Bold-20" x="375.292969"/>
     <use xlink:href="#DejaVuSans-Bold-55" x="410.107422"/>
     <use xlink:href="#DejaVuSans-Bold-72" x="491.308594"/>
     <use xlink:href="#DejaVuSans-Bold-62" x="540.625"/>
     <use xlink:href="#DejaVuSans-Bold-61" x="612.207031"/>
     <use xlink:href="#DejaVuSans-Bold-6e" x="679.6875"/>
    </g>
   </g>
   <g id="text_7">
    <!-- Mountain Valley -->
    <g style="fill: #ffffff" transform="translate(217.841094 248.318125) scale(0.1 -0.1)">
     <defs>
      <path id="DejaVuSans-Bold-4d" d="M 588 4666 
L 2119 4666 
L 3181 2169 
L 4250 4666 
L 5778 4666 
L 5778 0 
L 4641 0 
L 4641 3413 
L 3566 897 
L 2803 897 
L 1728 3413 
L 1728 0 
L 588 0 
L 588 4666 
z
" transform="scale(0.015625)"/>
      <path id="DejaVuSans-Bold-56" d="M 31 4666 
L 1241 4666 
L 2478 1222 
L 3713 4666 
L 4922 4666 
L 3194 0 
L 1759 0 
L 31 4666 
z
" transform="scale(0.015625)"/>
     </defs>
     <use xlink:href="#DejaVuSans-Bold-4d"/>
     <use xlink:href="#DejaVuSans-Bold-6f" x="99.511719"/>
     <use xlink:href="#DejaVuSans-Bold-75" x="168.212891"/>
     <use xlink:href="#DejaVuSans-Bold-6e" x="239.404297"/>
     <use xlink:href="#DejaVuSans-Bold-74" x="310.595703"/>
     <use xlink:href="#DejaVuSans-Bold-61" x="358.398438"/>
     <use xlink:href="#DejaVuSans-Bold-69" x="425.878906"/>
     <use xlink:href="#DejaVuSans-Bold-6e" x="460.15625"/>
     <use xlink:href="#DejaVuSans-Bold-20" x="531.347656"/>
     <use xlink:href="#DejaVuSans-Bold-56" x="566.162109"/>
     <use xlink:href="#DejaVuSans-Bold-61" x="638.054688"/>
     <use xlink:href="#DejaVuSans-Bold-6c" x="705.535156"/>
     <use xlink:href="#DejaVuSans-Bold-6c" x="739.8125"/>
     <use xlink:href="#DejaVuSans-Bold-65" x="774.089844"/>
     <use xlink:href="#DejaVuSans-Bold-79" x="841.912109"/>
    </g>
   </g>
   <g id="text_8">
    <!-- Tropical Wetland -->
    <g style="fill: #ffffff" transform="translate(127.3035 337.061187) scale(0.1 -0.1)">
     <defs>
      <path id="DejaVuSans-Bold-54" d="M 31 4666 
L 4331 4666 
L 4331 3756 
L 2784 3756 
L 2784 0 
L 1581 0 
L 1581 3756 
L 31 3756 
L 31 4666 
z
" transform="scale(0.015625)"/>
      <path id="DejaVuSans-Bold-57" d="M 191 4666 
L 1344 4666 
L 2150 1275 
L 2950 4666 
L 4109 4666 
L 4909 1275 
L 5716 4666 
L 6859 4666 
L 5759 0 
L 4372 0 
L 3525 3547 
L 2688 0 
L 1300 0 
L 191 4666 
z
" transform="scale(0.015625)"/>
     </defs>
     <use xlink:href="#DejaVuSans-Bold-54"/>
     <use xlink:href="#DejaVuSans-Bold-72" x="57.212891"/>
     <use xlink:href="#DejaVuSans-Bold-6f" x="106.529297"/>
     <use xlink:href="#DejaVuSans-Bold-70" x="175.230469"/>
     <use xlink:href="#DejaVuSans-Bold-69" x="246.8125"/>
     <use xlink:href="#DejaVuSans-Bold-63" x="281.089844"/>
     <use xlink:href="#DejaVuSans-Bold-61" x="340.367188"/>
     <use xlink:href="#DejaVuSans-Bold-6c" x="407.847656"/>
     <use xlink:href="#DejaVuSans-Bold-20" x="442.125"/>
     <use xlink:href="#DejaVuSans-Bold-57" x="476.939453"/>
     <use xlink:href="#DejaVuSans-Bold-65" x="583.617188"/>
     <use xlink:href="#DejaVuSans-Bold-74" x="651.439453"/>
     <use xlink:href="#DejaVuSans-Bold-6c" x="699.242188"/>
     <use xlink:href="#DejaVuSans-Bold-61" x="733.519531"/>
     <use xlink:href="#DejaVuSans-Bold-6e" x="801"/>
     <use xlink:href="#DejaVuSans-Bold-64" x="872.191406"/>
    </g>
   </g>
  </g>
 </g>
 <defs>
  <clipPath id="p39af34cb50">
   <rect x="41.436562" y="23.837812" width="443.52" height="443.52"/>
  </clipPath>
 </defs>
</svg>
