<?xml version="1.0" encoding="UTF-8" standalone="no"?>
<!DOCTYPE svg PUBLIC "-//W3C//DTD SVG 1.1//EN"
 "http://www.w3.org/Graphics/SVG/1.1/DTD/svg11.dtd">
<!-- Generated by graphviz version 2.43.0 (0) -->
<svg width="722pt" height="368pt"
 viewBox="0.00 0.00 722.00 368.00" xmlns="http://www.w3.org/2000/svg" >
<g id="graph0" class="graph" transform="scale(1 1) rotate(0) translate(4 364)">
<title>HydroLoop Assembly Diagram v1</title>
<polygon fill="#ffffff" stroke="transparent" points="-4,4 -4,-364 718,-364 718,4 -4,4"/>
<!-- A -->
<g id="node1" class="node">
<title>A</title>
<ellipse fill="lightblue" stroke="black" cx="74" cy="-178" rx="57.5" ry="18"/>
<text text-anchor="middle" x="74" y="-174.3" font-family="Helvetica,sans-serif" font-size="14.00">Water Intake</text>
</g>
<!-- B -->
<g id="node2" class="node">
<title>B</title>
<ellipse fill="lightyellow" stroke="black" cx="205" cy="-178" rx="105.39" ry="18"/>
<text text-anchor="middle" x="205" y="-174.3" font-family="Helvetica,sans-serif" font-size="14.00">Thermal Collector (Solar/Thermal)</text>
</g>
<!-- A&#45;&gt;B -->
<g id="edge1" class="edge">
<title>A&#45;&gt;B</title>
<path fill="none" stroke="black" d="M131.65,-178C139.54,-178 147.59,-178 155.59,-178"/>
<polygon fill="black" stroke="black" points="155.69,-181.5 165.69,-178 155.69,-174.5 155.69,-181.5"/>
<text text-anchor="middle" x="148" y="-190.8" font-family="Helvetica,sans-serif" font-size="10.00">Intake Flow</text>
</g>
<!-- C -->
<g id="node3" class="node">
<title>C</title>
<ellipse fill="lightyellow" stroke="black" cx="367" cy="-178" rx="93.58" ry="18"/>
<text text-anchor="middle" x="367" y="-174.3" font-family="Helvetica,sans-serif" font-size="14.00">Evaporation Chamber</text>
</g>
<!-- B&#45;&gt;C -->
<g id="edge2" class="edge">
<title>B&#45;&gt;C</title>
<path fill="none" stroke="black" d="M310.67,-178C318.64,-178 326.7,-178 334.63,-178"/>
<polygon fill="black" stroke="black" points="334.81,-181.5 344.81,-178 334.81,-174.5 334.81,-181.5"/>
<text text-anchor="middle" x="327" y="-190.8" font-family="Helvetica,sans-serif" font-size="10.00">Heated Water Vapor</text>
</g>
<!-- D -->
<g id="node4" class="node">
<title>D</title>
<ellipse fill="lightgreen" stroke="black" cx="523" cy="-178" rx="74.99" ry="18"/>
<text text-anchor="middle" x="523" y="-174.3" font-family="Helvetica,sans-serif" font-size="14.00">Condensate Coil</text>
</g>
<!-- C&#45;&gt;D -->
<g id="edge3" class="edge">
<title>C&#45;&gt;D</title>
<path fill="none" stroke="black" d="M460.93,-178C468.48,-178 476.11,-178 483.63,-178"/>
<polygon fill="black" stroke="black" points="483.71,-181.5 493.71,-178 483.71,-174.5 483.71,-181.5"/>
<text text-anchor="middle" x="473" y="-190.8" font-family="Helvetica,sans-serif" font-size="10.00">Vapor → Condensation</text>
</g>
<!-- E -->
<g id="node5" class="node">
<title>E</title>
<ellipse fill="lightblue" stroke="black" cx="652" cy="-178" rx="76.59" ry="18"/>
<text text-anchor="middle" x="652" y="-174.3" font-family="Helvetica,sans-serif" font-size="14.00">Clean Water Output</text>
</g>
<!-- D&#45;&gt;E -->
<g id="edge4" class="edge">
<title>D&#45;&gt;E</title>
<path fill="none" stroke="black" d="M598.04,-178C606.04,-178 614.25,-178 622.34,-178"/>
<polygon fill="black" stroke="black" points="622.34,-181.5 632.34,-178 622.34,-174.5 622.34,-181.5"/>
</g>
<!-- F -->
<g id="node6" class="node">
<title>F</title>
<ellipse fill="lightblue" stroke="black" cx="205" cy="-302" rx="67.09" ry="18"/>
<text text-anchor="middle" x="205" y="-298.3" font-family="Helvetica,sans-serif" font-size="14.00">Greywater Inlet</text>
</g>
<!-- G -->
<g id="node7" class="node">
<title>G</title>
<ellipse fill="lightgreen" stroke="black" cx="205" cy="-250" rx="97.09" ry="18"/>
<text text-anchor="middle" x="205" y="-246.3" font-family="Helvetica,sans-serif" font-size="14.00">Filter Bed (Charcoal/Fiber)</text>
</g>
<!-- F&#45;&gt;G -->
<g id="edge5" class="edge">
<title>F&#45;&gt;G</title>
<path fill="none" stroke="black" d="M205,-283.7C205,-278.24 205,-272.32 205,-266.59"/>
<polygon fill="black" stroke="black" points="208.5,-266.26 205,-256.26 201.5,-266.26 208.5,-266.26"/>
</g>
<!-- H -->
<g id="node8" class="node">
<title>H</title>
<ellipse fill="lightgreen" stroke="black" cx="205" cy="-198" rx="89.39" ry="18"/>
<text text-anchor="middle" x="205" y="-194.3" font-family="Helvetica,sans-serif" font-size="14.00">Loopback Reservoir</text>
</g>
<!-- G&#45;&gt;H -->
<g id="edge6" class="edge">
<title>G&#45;&gt;H</title>
<path fill="none" stroke="black" d="M205,-231.7C205,-226.24 205,-220.32 205,-214.59"/>
<polygon fill="black" stroke="black" points="208.5,-214.26 205,-204.26 201.5,-214.26 208.5,-214.26"/>
</g>
<!-- H&#45;&gt;C -->
<g id="edge7" class="edge">
<title>H&#45;&gt;C</title>
<path fill="none" stroke="black" d="M262.42,-186.54C279.11,-184.17 297.89,-181.51 314.96,-179.1"/>
<polygon fill="black" stroke="black" points="315.77,-182.53 325.16,-177.63 314.75,-175.59 315.77,-182.53"/>
</g>
<!-- I -->
<g id="node9" class="node">
<title>I</title>
<ellipse fill="#dddddd" stroke="black" stroke-dasharray="5,2" cx="367" cy="-43" rx="124.38" ry="18"/>
<text text-anchor="middle" x="367" y="-39.3" font-family="Helvetica,sans-serif" font-size="14.00">DAO Sensor Module (Optional)</text>
</g>
<!-- C&#45;&gt;I -->
<g id="edge8" class="edge">
<title>C&#45;&gt;I</title>
<path fill="none" stroke="black" stroke-dasharray="5,2" d="M367,-159.53C367,-138.61 367,-100.51 367,-71.21"/>
<polygon fill="black" stroke="black" points="370.5,-71.21 367,-61.21 363.5,-71.21 370.5,-71.21"/>
<text text-anchor="middle" x="385" y="-108.8" font-family="Helvetica,sans-serif" font-size="10.00">Telemetry (Temp/Flow)</text>
</g>
<!-- D&#45;&gt;I -->
<g id="edge9" class="edge">
<title>D&#45;&gt;I</title>
<path fill="none" stroke="black" stroke-dasharray="5,2" d="M506.29,-160.19C475.19,-128.7 420.32,-73.28 388.55,-41.83"/>
<polygon fill="black" stroke="black" points="391.11,-39.56 381.72,-34.67 386.21,-44.2 391.11,-39.56"/>
<text text-anchor="middle" x="471" y="-94.8" font-family="Helvetica,sans-serif" font-size="10.00">Telemetry (Condensate)</text>
</g>
</g>
</svg>
